<svg viewBox="0 0 400 200" xmlns="http://www.w3.org/2000/svg">
  <defs>
    <linearGradient id="sky-on" x1="0%" y1="0%" x2="100%" y2="100%">
      <stop offset="0%" style="stop-color:#4c1d95"/>
      <stop offset="50%" style="stop-color:#7c3aed"/>
      <stop offset="100%" style="stop-color:#a855f7"/>
    </linearGradient>
  </defs>
  <rect width="400" height="200" fill="url(#sky-on)"/>
  <!-- Digital globe -->
  <circle cx="200" cy="100" r="60" fill="none" stroke="#c4b5fd" stroke-width="2"/>
  <ellipse cx="200" cy="100" rx="60" ry="25" fill="none" stroke="#c4b5fd" stroke-width="1"/>
  <ellipse cx="200" cy="100" rx="25" ry="60" fill="none" stroke="#c4b5fd" stroke-width="1"/>
  <line x1="140" y1="100" x2="260" y2="100" stroke="#c4b5fd" stroke-width="1"/>
  <line x1="200" y1="40" x2="200" y2="160" stroke="#c4b5fd" stroke-width="1"/>
  <!-- Connection dots -->
  <circle cx="170" cy="70" r="4" fill="#fbbf24"/>
  <circle cx="230" cy="85" r="4" fill="#34d399"/>
  <circle cx="185" cy="120" r="4" fill="#f472b6"/>
  <circle cx="220" cy="110" r="4" fill="#60a5fa"/>
  <!-- Connection lines -->
  <line x1="170" y1="70" x2="230" y2="85" stroke="#fbbf24" stroke-width="1" opacity="0.6"/>
  <line x1="230" y1="85" x2="220" y2="110" stroke="#34d399" stroke-width="1" opacity="0.6"/>
  <line x1="185" y1="120" x2="220" y2="110" stroke="#f472b6" stroke-width="1" opacity="0.6"/>
  <!-- Floating icons -->
  <rect x="80" y="50" width="30" height="25" rx="3" fill="#1e1b4b"/>
  <rect x="85" y="55" width="20" height="3" fill="#c4b5fd"/>
  <rect x="85" y="60" width="15" height="3" fill="#c4b5fd"/>
  <rect x="85" y="65" width="18" height="3" fill="#c4b5fd"/>
  <rect x="290" y="130" width="30" height="25" rx="3" fill="#1e1b4b"/>
  <polygon points="305,142 298,148 305,154 312,148" fill="#c4b5fd"/>
</svg>